{"glyphs":{":":{"x_min":0,"x_max":266,"ha":266,"o":"m 42 41 q 42 66 59 84 q 75 101 100 101 q 125 101 142 84 q 159 66 159 41 q 159 17 142 0 q 125 -17 100 -17 q 76 -17 59 0 q 42 17 42 41 z m 88 360 q 88 385 105 403 q 122 420 147 420 q 172 420 189 403 q 206 385 206 360 q 206 336 189 319 q 171 302 147 302 q 123 302 105 319 q 88 336 88 360 z"},"$":{"x_min":0,"x_max":532,"ha":532,"o":"m 244 44 q 296 51 331 86 q 365 121 365 165 q 365 204 344 231 q 323 258 277 279 z m 250 386 l 279 588 q 232 580 207 551 q 182 522 182 478 q 182 448 197 427 q 212 406 250 386 z m 226 -89 q 224 -104 219 -108 q 214 -113 203 -113 q 193 -113 188 -109 q 183 -105 183 -97 l 183 -93 l 196 -2 q 104 4 76 27 q 49 51 49 125 q 49 150 57 165 q 66 180 80 180 q 95 180 101 147 q 104 129 107 119 q 116 89 139 71 q 163 53 202 45 l 238 297 q 166 329 134 367 q 102 404 102 457 q 102 526 153 575 q 203 625 285 634 l 296 707 q 298 722 302 726 q 307 731 318 731 q 328 731 333 727 q 338 723 338 715 l 338 711 l 327 634 q 392 632 426 606 q 459 581 459 534 q 459 523 454 518 q 450 512 441 512 q 425 512 403 541 l 402 542 q 385 564 366 575 q 348 585 321 589 l 289 363 q 374 324 408 284 q 443 245 443 190 q 443 113 386 60 q 330 7 239 1 z"},"?":{"x_min":0,"x_max":417,"ha":417,"o":"m 154 241 q 154 296 171 343 q 189 390 232 444 l 237 451 q 318 554 318 616 q 318 656 297 678 q 277 699 238 699 q 201 699 172 676 q 143 652 126 609 q 124 603 119 590 q 104 547 78 547 q 62 547 53 556 q 45 566 45 584 q 45 604 59 630 q 73 656 96 678 q 129 710 166 726 q 202 741 245 741 q 316 741 358 703 q 400 666 400 602 q 400 576 392 551 q 383 525 365 496 q 350 473 300 424 l 299 423 q 291 415 275 400 q 246 373 239 361 q 219 328 208 266 q 206 252 204 245 q 200 225 194 218 q 188 211 178 211 q 167 211 160 219 q 154 227 154 241 z m 110 41 q 110 64 126 81 q 142 97 165 97 q 188 97 204 81 q 220 64 220 41 q 220 18 204 2 q 188 -14 165 -14 q 142 -14 126 2 q 110 18 110 41 z"},"<":{"x_min":0,"x_max":833,"ha":833,"o":"m 704 559 l 704 497 l 216 298 l 704 100 l 704 37 l 129 273 l 129 323 z"},"'":{"x_min":0,"x_max":170,"ha":170,"o":"m 93 422 l 77 422 l 45 645 q 44 649 44 653 q 44 657 44 664 q 44 688 54 701 q 65 714 85 714 q 105 714 116 701 q 127 688 127 665 q 127 661 125 648 q 125 646 125 645 z"},"=":{"x_min":0,"x_max":833,"ha":833,"o":"m 124 233 l 709 233 l 709 176 l 124 176 z m 124 420 l 709 420 l 709 363 l 124 363 z"},"a":{"x_min":0,"x_max":537,"ha":537,"o":"m 199 52 q 231 52 264 70 q 296 88 322 119 q 354 158 373 217 q 391 276 391 341 q 391 398 365 431 q 338 464 293 464 q 261 464 231 446 q 201 427 176 392 q 144 347 125 289 q 106 230 106 172 q 106 113 130 83 q 154 52 199 52 z m 362 97 q 306 39 260 12 q 214 -14 169 -14 q 100 -14 61 33 q 21 81 21 164 q 21 222 37 276 q 53 331 84 378 q 124 439 182 476 q 239 512 297 512 q 343 512 394 480 q 407 471 411 471 q 417 471 420 473 q 424 474 428 478 l 461 510 q 472 520 476 522 q 481 525 485 525 q 491 525 495 521 q 499 516 499 509 q 499 499 488 442 q 476 386 469 339 q 457 260 450 193 q 443 126 443 97 q 443 78 448 72 q 452 66 465 66 q 470 66 478 67 q 486 68 490 68 q 500 68 505 64 q 510 61 510 53 q 510 36 475 14 q 440 -9 410 -9 q 384 -9 374 12 q 364 33 362 97 z"},"L":{"x_min":0,"x_max":535,"ha":535,"o":"m 313 58 q 348 58 375 68 q 403 78 421 98 q 438 116 456 156 q 475 195 492 195 q 503 195 510 186 q 516 176 516 159 q 516 135 504 96 q 491 58 471 22 q 461 5 451 -3 q 442 -12 433 -12 q 428 -12 406 -6 q 385 0 368 0 l 43 0 q 14 0 0 6 q -14 12 -14 25 q -14 34 -9 40 q -4 46 8 51 q 13 53 23 56 q 52 64 58 81 q 66 103 80 188 q 94 273 109 389 q 120 477 127 550 q 134 624 134 638 q 134 653 129 660 q 125 667 112 671 q 107 673 99 675 q 75 683 75 695 q 75 714 107 723 q 139 733 203 733 q 253 733 276 726 q 298 719 298 704 q 298 694 293 689 q 288 683 275 678 q 271 676 264 674 q 235 664 230 647 q 226 634 220 598 q 213 562 207 517 q 185 354 171 239 q 157 124 157 101 q 157 75 171 67 q 185 58 228 58 z"},"3":{"x_min":0,"x_max":532,"ha":532,"o":"m 313 323 q 375 314 408 273 q 440 233 440 163 q 440 108 413 57 q 385 6 336 -30 q 292 -62 240 -77 q 188 -93 128 -93 q 60 -93 16 -78 q -28 -62 -28 -40 q -28 -30 -21 -24 q -14 -19 -1 -19 q 7 -19 49 -30 q 91 -41 127 -41 q 226 -41 287 13 q 348 67 348 152 q 348 211 311 243 q 273 274 203 274 q 186 274 165 271 q 143 268 138 268 q 135 268 133 272 q 131 277 131 286 q 131 312 168 317 q 179 319 185 320 q 259 333 299 376 q 340 419 340 484 q 340 530 315 557 q 290 584 247 584 q 200 584 146 554 q 91 525 87 525 q 79 525 75 529 q 71 533 71 541 q 71 553 84 567 q 98 582 122 596 q 164 621 204 633 q 244 646 281 646 q 350 646 393 605 q 435 563 435 496 q 435 442 405 400 q 375 357 313 323 z"},";":{"x_min":0,"x_max":266,"ha":266,"o":"m 88 360 q 88 385 105 402 q 122 419 147 419 q 172 419 189 402 q 206 385 206 360 q 206 336 189 319 q 171 302 147 302 q 123 302 105 319 q 88 336 88 360 z m 37 -122 q 37 -118 49 -101 q 61 -84 69 -72 q 82 -49 85 -41 q 89 -33 89 -27 q 89 -21 79 -14 q 74 -11 72 -9 q 71 -8 70 -7 q 47 9 47 33 q 47 62 64 81 q 81 101 105 101 q 129 101 142 85 q 156 69 156 41 q 156 17 146 -9 q 137 -34 115 -70 q 94 -104 80 -120 q 65 -135 54 -135 q 47 -135 42 -131 q 37 -127 37 -122 z"},"J":{"x_min":0,"x_max":491,"ha":491,"o":"m 328 507 q 334 554 338 592 q 342 631 342 638 q 342 652 337 659 q 332 666 319 671 q 315 672 308 675 q 281 684 281 695 q 281 714 314 723 q 347 733 412 733 q 463 733 486 726 q 509 719 509 704 q 509 687 483 678 q 458 668 450 662 q 434 649 414 515 l 414 513 l 382 292 l 379 276 q 354 105 322 62 q 293 23 247 1 q 201 -21 148 -21 q 75 -21 26 21 q -22 64 -22 127 q -22 168 -3 192 q 16 217 47 217 q 66 217 78 205 q 91 192 91 173 q 91 157 76 129 q 61 102 61 88 q 61 62 84 46 q 108 30 147 30 q 179 30 206 45 q 234 60 253 87 q 267 107 276 143 q 286 180 298 275 z"},"V":{"x_min":0,"x_max":674,"ha":674,"o":"m 286 -11 q 279 -11 274 -6 q 268 -1 264 9 q 255 34 216 183 q 178 332 134 518 q 130 535 124 566 q 104 654 90 667 q 86 670 67 677 q 49 684 49 695 q 49 714 81 723 q 113 733 177 733 q 227 733 250 726 q 272 719 272 704 q 272 686 237 674 q 231 672 229 671 q 215 666 209 655 q 202 644 202 627 q 202 604 214 542 q 226 481 250 383 q 280 258 297 209 q 313 160 323 160 q 333 160 368 218 q 403 276 459 384 q 526 512 555 573 q 584 634 584 647 q 584 655 578 661 q 572 667 561 671 q 556 673 548 675 q 524 683 524 695 q 524 713 554 723 q 584 733 642 733 q 689 733 711 726 q 732 719 732 704 q 732 687 705 678 q 693 674 688 671 q 659 654 617 575 l 612 565 q 549 448 455 266 q 311 -11 286 -11 z"},"\"":{"x_min":0,"x_max":331,"ha":331,"o":"m 253 422 l 238 422 l 206 645 q 206 646 206 648 q 204 659 204 664 q 204 688 215 701 q 226 714 246 714 q 266 714 276 701 q 287 688 287 665 q 287 658 287 654 q 287 649 286 645 z m 93 422 l 77 422 l 46 645 q 45 653 44 658 q 44 662 44 665 q 44 688 55 701 q 65 714 85 714 q 105 714 116 701 q 127 688 127 665 q 127 661 125 648 q 125 646 125 645 z"},"7":{"x_min":0,"x_max":532,"ha":532,"o":"m 231 559 q 181 559 158 550 q 134 542 114 518 q 106 509 92 486 q 78 463 66 463 q 60 463 55 469 q 51 475 51 484 q 51 499 59 525 q 68 551 82 578 q 104 619 122 639 q 141 660 156 660 q 162 660 165 657 q 168 653 168 647 q 168 642 167 638 q 167 635 166 632 l 461 632 q 491 632 505 625 q 520 618 520 603 q 520 593 497 549 l 492 539 l 189 -49 q 167 -94 154 -107 q 141 -120 124 -120 q 106 -120 91 -109 q 75 -98 75 -86 q 75 -80 81 -68 q 86 -56 98 -35 l 416 508 q 422 519 426 530 q 430 541 430 545 q 430 552 421 555 q 413 559 395 559 z"},"S":{"x_min":0,"x_max":579,"ha":579,"o":"m 237 36 q 311 36 363 81 q 415 126 415 189 q 415 214 406 235 q 397 256 380 272 q 351 299 280 328 q 258 337 247 342 q 164 379 130 419 q 97 459 97 520 q 97 613 169 677 q 241 740 348 740 q 376 740 412 733 q 447 725 454 725 q 464 725 481 730 q 497 736 502 736 q 520 736 532 702 q 545 668 545 618 q 545 596 538 582 q 530 569 518 569 q 500 569 480 603 q 472 617 467 625 q 446 656 411 673 q 376 690 334 690 q 270 690 228 650 q 185 611 185 553 q 185 508 213 479 q 241 450 328 413 q 335 410 349 404 q 420 375 454 344 q 479 320 493 289 q 506 257 506 220 q 506 173 487 132 q 469 90 434 59 q 391 21 338 1 q 285 -19 227 -19 q 179 -19 134 -8 q 88 4 57 24 q 36 37 27 56 q 19 74 19 112 q 19 171 27 198 q 35 224 52 224 q 75 224 83 177 q 86 152 90 138 q 104 84 139 60 q 174 36 237 36 z"},"}":{"x_min":0,"x_max":500,"ha":500,"o":"m 87 740 l 92 740 q 197 740 237 704 q 277 668 277 571 l 277 467 q 277 390 305 361 q 333 333 414 325 l 414 296 q 334 290 306 260 q 277 231 277 154 l 277 50 q 277 -47 237 -83 q 197 -119 92 -119 l 87 -119 l 87 -94 q 157 -93 182 -68 q 207 -42 207 34 l 207 104 q 207 214 237 255 q 267 295 347 310 q 267 325 237 365 q 207 406 207 516 l 207 586 q 207 662 182 688 q 156 714 87 715 z"},"Z":{"x_min":0,"x_max":630,"ha":630,"o":"m 105 0 l 95 0 q 32 0 15 8 q -2 17 -2 38 q -2 49 10 68 q 22 88 44 113 l 466 598 q 484 619 495 634 q 505 649 505 655 q 505 663 494 666 q 482 670 460 670 l 289 670 q 248 670 222 658 q 197 646 177 619 q 168 608 156 587 q 130 546 110 546 q 99 546 92 554 q 86 562 86 577 q 86 589 92 613 q 98 636 108 660 q 125 702 141 720 q 157 739 174 739 q 176 739 206 734 q 236 729 264 729 l 554 729 q 590 729 606 721 q 622 713 622 695 q 622 679 603 649 q 583 620 537 567 l 176 150 l 171 145 q 118 83 118 74 q 118 66 135 62 q 152 59 196 59 l 334 59 q 395 59 421 70 q 447 80 469 106 q 482 123 502 160 q 522 197 540 197 q 551 197 557 188 q 563 180 563 164 q 563 143 552 106 q 542 69 525 35 q 513 10 502 2 q 492 -7 476 -7 q 475 -7 469 -6 q 432 0 385 0 z"},"x":{"x_min":0,"x_max":472,"ha":472,"o":"m 215 191 q 149 94 106 43 q 63 -8 47 -8 q 27 -8 1 23 q -24 54 -24 80 q -24 90 -19 94 q -14 98 -3 98 q 3 98 19 87 q 34 76 43 76 q 59 76 100 122 q 142 168 194 245 q 143 375 123 406 q 103 437 81 437 q 76 437 68 436 q 60 435 56 435 q 47 435 42 438 q 37 441 37 447 q 37 462 74 483 q 79 485 82 487 q 102 498 119 504 q 137 510 146 510 q 175 510 223 385 q 238 346 247 323 q 317 427 352 469 q 388 510 406 510 q 424 510 447 479 q 469 448 469 424 q 469 417 464 411 q 459 406 453 406 q 446 406 431 418 q 416 430 409 430 q 396 430 355 382 q 314 334 270 262 l 272 255 q 344 56 379 56 q 383 56 392 57 q 401 58 407 58 q 417 58 423 54 q 428 51 428 44 q 428 28 393 10 q 358 -8 323 -8 q 290 -8 250 102 q 229 157 215 191 z"},")":{"x_min":0,"x_max":350,"ha":350,"o":"m -69 -141 q -69 -132 -33 -108 q 3 -84 30 -61 q 108 8 152 134 q 195 260 195 422 q 195 496 180 552 q 165 607 134 644 q 111 671 83 696 q 54 720 54 726 q 54 733 59 737 q 63 741 71 741 q 84 741 109 727 q 133 713 157 690 q 217 632 247 552 q 278 471 278 373 q 278 272 244 175 q 210 78 146 -3 q 95 -67 36 -111 q -23 -155 -51 -155 q -59 -155 -64 -151 q -69 -147 -69 -141 z"},"&":{"x_min":0,"x_max":745,"ha":745,"o":"m 201 475 q 180 497 170 522 q 159 547 159 576 q 159 645 212 691 q 266 738 345 738 q 397 738 443 715 q 489 691 489 672 q 489 662 480 653 q 472 645 461 645 q 456 645 420 663 q 385 681 352 681 q 304 681 273 650 q 242 620 242 572 q 242 542 256 519 q 270 495 294 482 q 306 476 326 467 q 352 457 352 447 q 352 436 341 426 q 330 417 315 417 q 306 417 287 423 q 268 429 244 440 q 184 427 150 379 q 116 332 116 259 q 116 159 180 94 q 244 30 342 30 q 431 30 491 87 q 552 144 552 226 q 552 273 528 302 q 505 331 462 335 q 429 324 411 305 q 393 287 388 259 q 387 255 386 248 q 379 207 357 207 q 345 207 338 216 q 331 226 331 241 q 331 280 361 315 q 391 350 453 382 q 469 391 500 406 q 701 510 701 590 q 701 621 685 640 q 669 658 642 658 q 629 658 611 651 q 593 643 587 643 q 579 643 575 648 q 571 652 571 662 q 571 685 599 705 q 627 725 664 725 q 712 725 744 690 q 775 654 775 599 q 775 533 719 481 q 663 430 515 367 l 515 362 q 572 354 602 320 q 633 286 633 229 q 633 192 618 156 q 603 120 572 86 q 529 37 462 9 q 395 -19 319 -19 q 278 -19 240 -11 q 203 -2 170 14 q 100 50 62 109 q 24 168 24 243 q 24 323 68 380 q 112 438 201 475 z"},"_":{"x_min":0,"x_max":500,"ha":500,"o":"m 0 -178 l 500 -178 l 500 -236 l 0 -236 z"},"v":{"x_min":0,"x_max":512,"ha":512,"o":"m 49 126 q 49 169 66 266 q 84 363 84 416 q 84 427 81 432 q 78 437 69 439 q 64 440 56 441 q 29 446 29 458 q 29 466 34 472 q 40 478 53 483 q 80 495 109 502 q 138 509 150 509 q 162 509 167 503 q 173 497 173 484 q 173 471 165 426 q 162 408 160 398 q 141 292 134 236 q 126 180 126 148 q 126 94 147 68 q 168 42 212 42 q 251 42 282 59 q 313 76 339 110 q 369 150 384 198 q 399 247 399 302 q 399 331 394 358 q 389 385 378 418 q 374 430 361 452 q 348 475 348 484 q 348 496 361 502 q 375 509 400 509 q 433 509 451 473 q 469 438 469 371 q 469 286 444 209 q 419 133 375 79 q 334 31 290 9 q 245 -14 189 -14 q 124 -14 86 23 q 49 61 49 126 z"},"O":{"x_min":0,"x_max":778,"ha":778,"o":"m 418 687 q 354 687 298 656 q 242 624 206 567 q 170 512 152 444 q 133 375 133 301 q 133 179 193 106 q 252 34 353 34 q 407 34 454 57 q 501 79 545 125 q 589 172 616 248 q 643 325 643 407 q 643 538 583 613 q 523 687 418 687 z m 742 413 q 742 318 709 239 q 677 159 611 91 q 560 40 490 10 q 420 -19 348 -19 q 280 -19 225 3 q 169 26 126 70 q 84 113 60 179 q 35 245 35 317 q 35 417 75 504 q 115 591 191 654 q 243 697 307 719 q 371 741 443 741 q 577 741 660 651 q 742 561 742 413 z"},"(":{"x_min":0,"x_max":350,"ha":350,"o":"m 400 727 q 400 718 364 694 q 328 670 301 647 q 223 578 180 452 q 137 326 137 164 q 137 89 152 33 q 167 -22 197 -58 q 220 -85 248 -110 q 277 -134 277 -140 q 277 -146 272 -151 q 268 -155 260 -155 q 248 -155 223 -140 q 199 -126 175 -103 q 115 -44 84 36 q 53 116 53 213 q 53 313 87 411 q 121 508 185 589 q 235 653 295 697 q 355 741 383 741 q 391 741 395 737 q 400 733 400 727 z"},"C":{"x_min":0,"x_max":655,"ha":655,"o":"m 633 554 q 612 554 592 590 q 591 592 590 594 q 561 643 521 665 q 480 687 420 687 q 354 687 298 655 q 242 624 205 566 q 170 512 151 444 q 133 376 133 302 q 133 180 192 107 q 251 34 348 34 q 401 34 448 52 q 494 70 523 101 q 536 115 554 145 q 572 176 587 176 q 596 176 601 168 q 606 161 606 149 q 606 105 586 67 q 566 28 546 28 q 543 28 537 29 q 532 31 528 31 q 525 31 512 24 q 430 -19 337 -19 q 198 -19 117 70 q 35 159 35 310 q 35 391 60 463 q 84 536 131 594 q 188 665 269 703 q 349 741 443 741 q 481 741 523 732 q 566 722 571 722 q 583 722 599 728 q 616 733 621 733 q 639 733 651 698 q 663 663 663 607 q 663 580 656 567 q 648 554 633 554 z"},"W":{"x_min":0,"x_max":937,"ha":937,"o":"m 445 459 q 427 564 417 606 q 408 648 400 660 q 395 668 374 676 q 353 684 353 695 q 353 714 385 723 q 416 733 478 733 q 529 733 550 726 q 571 719 571 703 q 571 687 537 674 q 532 672 528 671 q 515 666 509 655 q 503 645 503 626 q 503 597 514 537 q 525 477 547 383 q 577 256 593 208 q 608 160 618 160 q 627 160 660 217 q 694 273 750 384 q 812 505 842 569 q 871 633 871 647 q 871 654 865 661 q 859 667 849 671 q 844 673 836 676 q 813 684 813 695 q 813 713 843 723 q 872 733 928 733 q 974 733 994 726 q 1014 719 1014 703 q 1014 687 988 678 q 977 674 972 671 q 944 654 905 578 q 900 569 898 565 q 838 449 747 269 q 606 -11 582 -11 q 573 -11 566 1 q 559 13 549 46 q 520 146 495 256 q 471 365 466 365 q 461 365 408 262 q 355 158 311 76 l 310 73 q 264 -11 246 -11 q 218 -11 120 427 l 99 518 q 94 539 87 574 q 70 655 57 667 q 53 670 35 677 q 17 684 17 695 q 17 714 48 723 q 79 733 141 733 q 192 733 213 726 q 234 719 234 703 q 234 687 200 674 q 194 672 191 671 q 179 667 173 656 q 167 646 167 629 q 167 601 178 538 q 189 475 211 383 q 239 266 256 213 q 273 160 283 160 q 295 160 345 249 q 395 337 445 459 z"},"A":{"x_min":0,"x_max":641,"ha":641,"o":"m 288 602 q 308 639 317 663 q 327 686 332 706 q 336 727 343 734 q 349 741 362 741 q 383 741 396 720 q 408 700 428 615 l 532 166 q 545 108 554 88 q 562 67 573 59 q 578 55 595 49 q 612 42 612 30 q 612 11 583 3 q 555 -5 485 -5 q 433 -5 406 3 q 379 11 379 26 q 379 41 413 53 q 417 54 419 55 q 439 62 446 71 q 453 81 453 100 q 453 125 449 152 q 445 179 434 224 q 430 240 425 244 q 420 248 404 248 l 201 248 q 179 248 170 244 q 161 239 154 228 q 127 185 112 147 q 96 110 96 91 q 96 76 104 68 q 111 60 132 52 q 148 46 153 41 q 157 37 157 29 q 157 12 131 4 q 104 -4 46 -4 q -2 -4 -27 4 q -52 12 -52 27 q -52 39 -30 48 q -25 50 -23 51 q 11 64 41 124 q 48 140 53 148 z m 206 327 q 205 325 204 323 q 199 312 199 309 q 199 305 204 303 q 208 301 217 301 l 397 301 q 406 301 410 303 q 413 305 413 310 q 413 312 412 316 q 411 320 411 321 l 371 507 l 368 520 q 352 597 346 597 q 342 597 316 550 q 290 503 259 439 z"},"f":{"x_min":0,"x_max":250,"ha":250,"o":"m 93 434 l 28 434 q 20 434 17 436 q 14 438 14 444 l 14 447 l 16 467 l 16 468 q 17 485 31 485 l 97 485 q 99 609 149 676 q 199 743 289 743 q 330 743 355 724 q 381 704 381 674 q 381 656 369 645 q 358 635 338 635 q 324 635 312 641 q 301 647 291 659 q 289 662 285 667 q 268 691 247 691 q 187 691 176 498 q 175 489 175 485 l 248 485 q 256 485 259 483 q 262 481 262 475 l 262 472 l 260 453 q 260 453 260 452 q 259 434 245 434 l 168 434 l 118 -25 q 114 -64 112 -86 q 110 -107 110 -119 q 110 -127 112 -139 q 114 -151 114 -155 q 114 -173 87 -185 q 60 -197 19 -197 q 1 -197 -8 -192 q -16 -187 -16 -177 q -16 -163 0 -154 q 17 -145 17 -144 q 27 -131 38 -58 q 50 16 65 163 z"},"Q":{"x_min":0,"x_max":778,"ha":778,"o":"m 285 -13 q 319 -28 378 -60 q 495 -122 551 -122 q 576 -122 592 -114 q 607 -106 619 -88 q 622 -83 626 -74 q 636 -53 647 -53 q 657 -53 662 -59 q 667 -65 667 -77 q 667 -119 626 -149 q 586 -179 526 -179 q 473 -179 417 -159 q 361 -138 265 -78 q 257 -73 242 -63 q 167 -15 133 -15 q 125 -15 105 -37 q 85 -58 65 -58 q 55 -58 50 -53 q 44 -47 44 -38 q 44 -12 77 9 q 110 29 156 29 q 163 29 168 29 q 173 28 177 28 q 108 76 72 151 q 35 227 35 321 q 35 418 76 505 q 117 592 191 654 q 243 697 307 719 q 371 741 443 741 q 577 741 659 651 q 742 560 742 413 q 742 298 694 203 q 646 108 558 48 q 510 16 457 -1 q 404 -18 348 -18 q 336 -18 321 -17 q 306 -16 285 -13 z m 418 687 q 354 687 298 656 q 242 624 206 567 q 170 512 152 444 q 133 375 133 301 q 133 179 193 106 q 252 34 353 34 q 407 34 454 57 q 501 79 545 125 q 589 172 616 248 q 643 325 643 407 q 643 538 583 613 q 523 687 418 687 z"},"w":{"x_min":0,"x_max":796,"ha":796,"o":"m 357 93 q 316 41 270 13 q 224 -14 177 -14 q 120 -14 84 25 q 49 63 49 126 q 49 167 66 264 q 84 362 84 416 q 84 427 81 432 q 78 437 69 439 q 64 440 56 441 q 29 446 29 458 q 29 466 34 472 q 40 478 53 483 q 80 494 109 501 q 138 509 150 509 q 162 509 167 503 q 173 497 173 484 q 173 471 165 426 q 163 416 162 410 q 143 299 134 238 q 126 177 126 148 q 126 98 146 70 q 167 42 203 42 q 233 42 262 60 q 291 79 314 112 q 344 155 359 212 q 374 269 381 404 q 381 414 382 433 q 384 512 456 512 q 463 512 468 506 q 472 500 472 489 q 472 483 468 459 q 464 436 462 422 q 445 312 437 244 q 429 176 429 148 q 429 95 450 69 q 471 42 512 42 q 536 42 557 50 q 578 59 595 75 q 639 116 663 175 q 687 233 687 301 q 687 330 682 358 q 677 385 666 418 q 662 430 649 452 q 636 475 636 484 q 636 496 649 502 q 662 509 687 509 q 721 509 739 473 q 757 438 757 371 q 757 306 741 243 q 725 180 695 126 q 657 58 605 22 q 553 -14 491 -14 q 434 -14 402 12 q 369 38 357 93 z"},"-":{"x_min":0,"x_max":306,"ha":306,"o":"m 147 224 q 119 224 89 223 q 59 221 57 221 q 42 221 36 225 q 30 229 30 238 q 30 260 44 276 q 59 291 83 291 q 84 291 92 291 q 125 290 158 290 q 178 290 204 292 q 230 293 236 293 q 251 293 257 289 q 263 285 263 276 q 263 254 248 239 q 233 223 209 223 q 208 223 187 224 q 166 224 147 224 z"},"E":{"x_min":0,"x_max":600,"ha":600,"o":"m 67 0 q 19 0 1 6 q -16 11 -16 25 q -16 33 -10 40 q -3 47 8 51 q 13 53 23 56 q 52 64 58 81 q 66 103 80 188 q 94 273 109 389 q 120 477 127 550 q 134 624 134 638 q 134 652 129 659 q 124 666 111 671 q 107 672 99 675 q 75 683 75 697 q 75 712 97 720 q 120 729 159 729 l 477 729 q 530 729 565 738 q 569 739 570 739 q 586 739 596 708 q 607 678 607 629 q 607 605 601 595 q 594 585 580 585 q 563 585 546 616 q 538 631 532 639 q 521 655 498 664 q 474 673 442 673 l 311 673 q 265 673 250 665 q 236 658 228 631 q 224 615 219 589 q 215 563 211 534 q 205 489 202 464 q 199 440 199 434 q 199 421 206 417 q 213 412 236 412 l 324 412 q 365 412 381 419 q 397 425 407 441 q 412 449 422 484 q 432 519 453 519 q 465 519 471 510 q 476 501 476 480 q 476 430 468 378 q 460 327 445 280 q 439 263 432 256 q 425 249 413 249 q 402 249 396 257 q 391 265 391 281 l 391 311 q 391 334 378 345 q 364 356 336 356 l 219 356 q 199 356 193 352 q 186 347 182 331 q 180 321 172 255 l 172 252 q 170 235 167 206 q 157 115 157 101 q 157 75 171 67 q 185 58 228 58 l 359 58 q 394 58 421 68 q 449 78 467 98 q 484 116 502 156 q 521 195 538 195 q 550 195 556 185 q 563 176 563 159 q 563 136 550 97 q 538 58 517 22 q 507 5 498 -3 q 488 -12 479 -12 q 474 -12 453 -6 q 431 0 414 0 z"},"s":{"x_min":0,"x_max":391,"ha":391,"o":"m 261 121 q 261 173 174 222 q 162 229 156 232 q 95 267 71 297 q 47 327 47 366 q 47 429 97 472 q 147 515 224 515 q 299 515 327 495 q 354 475 354 419 q 354 401 348 394 q 342 387 329 387 q 315 387 302 408 q 299 413 297 416 q 277 446 258 459 q 239 472 214 472 q 179 472 156 450 q 134 429 134 395 q 134 365 149 344 q 164 322 205 298 q 214 292 233 282 q 291 252 313 224 q 326 208 332 190 q 338 171 338 149 q 338 80 285 33 q 232 -14 154 -14 q 77 -14 34 12 q -9 38 -9 84 q -9 112 1 131 q 11 150 25 150 q 47 150 55 111 q 60 91 64 80 q 73 57 95 44 q 117 31 149 31 q 199 31 230 56 q 261 81 261 121 z"},">":{"x_min":0,"x_max":833,"ha":833,"o":"m 129 559 l 704 323 l 704 273 l 129 37 l 129 100 l 617 298 l 129 497 z"},"l":{"x_min":0,"x_max":243,"ha":243,"o":"m 38 21 q 38 29 47 76 q 56 123 62 161 q 87 320 103 457 q 118 594 118 628 q 118 646 115 652 q 111 658 101 660 q 96 661 86 663 q 59 667 59 682 q 59 693 71 702 q 83 710 116 723 q 138 731 158 736 q 178 740 194 740 q 203 740 208 735 q 213 729 213 720 q 213 716 202 650 q 191 583 182 519 q 158 346 143 230 q 128 115 128 97 q 128 76 133 69 q 138 62 151 62 q 155 62 164 63 q 173 65 179 65 q 186 65 190 60 q 195 56 195 49 q 195 30 156 12 q 117 -5 69 -5 q 53 -5 46 1 q 38 8 38 21 z"},"8":{"x_min":0,"x_max":532,"ha":532,"o":"m 192 355 q 143 387 119 422 q 95 458 95 499 q 95 535 114 570 q 132 605 165 633 q 199 662 243 677 q 288 692 339 692 q 412 692 457 653 q 502 614 502 551 q 502 497 466 453 q 431 409 352 368 q 414 327 444 283 q 474 239 474 188 q 474 150 455 113 q 436 75 401 46 q 366 16 320 1 q 275 -14 220 -14 q 133 -14 79 31 q 24 77 24 146 q 24 210 65 262 q 107 313 192 355 z m 314 395 q 370 420 400 459 q 431 499 431 543 q 431 590 401 619 q 371 648 323 648 q 268 648 226 612 q 185 577 185 530 q 185 494 216 461 q 247 428 314 395 z m 235 331 q 167 303 132 259 q 97 215 97 160 q 97 103 136 67 q 174 31 236 31 q 299 31 343 68 q 387 106 387 158 q 387 204 353 243 q 319 282 235 331 z"},"\\":{"x_min":0,"x_max":241,"ha":241,"o":"m 209 -65 l 209 -70 q 209 -81 201 -87 q 193 -93 178 -93 q 166 -93 164 -74 q 163 -72 163 -71 l 47 713 l 47 718 q 47 729 55 735 q 63 741 78 741 q 91 741 94 719 l 94 719 z"},"e":{"x_min":0,"x_max":451,"ha":451,"o":"m 100 205 q 100 130 136 85 q 172 39 231 39 q 258 39 283 50 q 309 60 344 89 q 346 90 348 93 q 370 112 382 112 q 390 112 395 106 q 400 100 400 91 q 400 82 393 71 q 386 61 372 50 q 332 18 293 2 q 254 -13 212 -13 q 124 -13 70 43 q 16 99 16 191 q 16 265 44 329 q 73 394 128 445 q 164 479 208 496 q 252 514 300 514 q 356 514 390 483 q 423 453 423 401 q 423 321 334 267 q 246 212 100 205 z m 101 249 q 212 254 276 294 q 339 335 339 400 q 339 432 323 451 q 306 470 280 470 q 214 470 163 408 q 112 346 101 249 z"},"b":{"x_min":0,"x_max":537,"ha":537,"o":"m 159 425 q 159 424 158 422 q 158 420 158 416 q 158 412 159 409 q 161 406 163 406 q 165 406 185 426 q 204 446 224 462 q 255 488 288 501 q 320 514 352 514 q 418 514 459 463 q 500 412 500 328 q 500 261 475 194 q 449 127 405 78 q 364 32 316 10 q 268 -13 212 -13 q 134 -13 90 22 q 46 57 46 120 q 46 141 60 232 q 73 324 81 383 q 93 481 100 547 q 107 613 107 637 q 107 648 103 653 q 99 659 91 660 q 86 661 77 663 q 50 667 50 682 q 50 693 62 702 q 74 711 108 723 q 128 730 147 735 q 167 739 183 739 q 195 739 200 734 q 205 730 205 721 q 205 714 198 678 q 191 641 187 613 z m 314 448 q 230 448 176 359 q 122 270 122 127 q 122 85 151 60 q 179 35 227 35 q 264 35 294 52 q 323 70 349 107 q 379 150 396 205 q 413 260 413 315 q 413 377 387 413 q 360 448 314 448 z"},"%":{"x_min":0,"x_max":713,"ha":713,"o":"m 249 116 q 229 84 201 34 q 168 -25 153 -25 q 143 -25 133 -17 q 124 -9 124 0 q 124 10 162 62 q 195 109 216 141 l 463 516 q 483 547 510 596 q 543 656 559 656 q 570 656 579 648 q 588 641 588 632 q 588 622 552 573 q 517 524 495 491 z m 163 297 q 102 297 61 341 q 21 384 21 452 q 21 535 70 590 q 118 646 190 646 q 250 646 289 604 q 328 562 328 495 q 328 414 279 355 q 230 297 163 297 z m 162 336 q 201 336 228 384 q 255 433 255 506 q 255 552 236 580 q 217 608 187 608 q 148 608 121 560 q 94 512 94 441 q 94 392 112 364 q 130 336 162 336 z m 525 -14 q 463 -14 423 30 q 383 73 383 141 q 383 224 431 279 q 479 335 551 335 q 612 335 651 293 q 690 250 690 184 q 690 103 641 44 q 592 -14 525 -14 z m 523 24 q 562 24 590 73 q 617 121 617 194 q 617 239 597 268 q 578 296 547 296 q 508 296 482 249 q 456 202 456 130 q 456 81 474 52 q 492 24 523 24 z"},"m":{"x_min":0,"x_max":836,"ha":836,"o":"m 165 458 l 166 424 q 166 419 166 413 q 165 407 165 406 q 165 404 166 403 q 166 402 167 402 q 168 402 190 423 q 211 444 233 463 q 261 488 291 501 q 321 514 349 514 q 383 514 408 498 q 434 481 446 452 q 453 436 456 416 q 459 396 462 396 q 464 396 482 416 q 500 435 520 453 q 553 483 585 499 q 618 514 650 514 q 704 514 734 480 q 763 447 763 384 q 763 322 748 223 q 733 124 733 89 q 733 72 736 67 q 739 62 747 62 q 752 62 762 63 q 772 65 778 65 q 788 65 794 61 q 800 57 800 50 q 800 30 760 13 q 721 -5 673 -5 q 657 -5 650 1 q 642 8 642 21 q 642 39 664 152 q 685 265 685 354 q 685 402 671 423 q 658 444 627 444 q 600 444 567 425 q 535 405 504 370 q 449 308 431 127 q 430 118 429 113 q 428 100 425 77 q 420 20 412 11 q 407 6 387 1 q 367 -5 347 -5 q 340 -5 336 -2 q 333 1 333 7 q 333 11 338 35 q 342 57 345 71 q 363 164 371 233 q 380 303 380 351 q 380 401 367 422 q 354 444 324 444 q 296 444 264 425 q 232 406 199 370 q 144 309 125 127 q 125 118 124 113 q 123 100 121 77 q 115 20 107 11 q 102 6 82 1 q 62 -5 42 -5 q 35 -5 31 -2 q 27 1 27 7 q 27 10 34 43 q 42 77 47 107 q 65 208 75 287 q 86 366 86 396 q 86 415 83 424 q 80 433 73 434 q 65 435 53 436 q 23 438 23 452 q 23 461 31 468 q 40 476 62 486 q 89 498 110 504 q 131 510 144 510 q 164 510 165 464 q 165 460 165 458 z"},"#":{"x_min":0,"x_max":769,"ha":769,"o":"m 342 424 l 293 284 l 434 284 l 484 424 z m 380 711 l 445 711 l 363 481 l 503 481 l 585 711 l 649 711 l 568 481 l 718 481 l 698 424 l 547 424 l 498 284 l 660 284 l 639 228 l 478 228 l 397 -1 l 332 -1 l 413 228 l 273 228 l 192 -1 l 128 -1 l 209 228 l 51 228 l 72 284 l 229 284 l 278 424 l 108 424 l 129 481 l 299 481 z"},",":{"x_min":0,"x_max":266,"ha":266,"o":"m 45 -122 q 45 -118 55 -104 q 61 -97 65 -91 q 80 -69 88 -53 q 96 -36 96 -28 q 96 -20 84 -12 q 82 -10 80 -9 q 79 -8 78 -7 q 55 9 55 33 q 55 62 72 81 q 89 101 113 101 q 137 101 150 85 q 163 70 163 41 q 163 17 154 -9 q 145 -35 122 -72 q 101 -106 87 -120 q 73 -135 62 -135 q 56 -135 50 -131 q 45 -127 45 -122 z"},"n":{"x_min":0,"x_max":556,"ha":556,"o":"m 166 454 l 166 414 q 166 408 167 407 q 167 405 169 405 q 172 405 193 424 q 214 444 232 458 q 266 485 301 500 q 335 514 365 514 q 423 514 454 481 q 484 448 484 384 q 484 322 469 223 q 453 124 453 89 q 453 73 456 68 q 459 62 468 62 q 473 62 483 63 q 493 65 499 65 q 509 65 514 61 q 520 57 520 50 q 520 30 481 12 q 442 -5 394 -5 q 378 -5 370 1 q 363 8 363 21 q 363 40 385 157 q 407 275 407 366 q 407 406 391 427 q 375 447 342 447 q 313 447 285 435 q 257 422 227 396 q 185 359 164 315 q 143 271 131 175 q 127 143 122 91 q 115 20 107 11 q 102 6 82 1 q 62 -5 42 -5 q 35 -5 31 -2 q 27 1 27 7 q 27 10 34 43 q 42 77 47 107 q 65 208 75 287 q 86 366 86 396 q 86 415 83 424 q 80 433 73 434 q 65 435 53 436 q 23 438 23 452 q 23 461 32 469 q 42 477 62 486 q 88 498 110 504 q 131 510 144 510 q 157 510 161 500 q 166 490 166 454 z"},"h":{"x_min":0,"x_max":549,"ha":549,"o":"m 161 453 l 156 413 l 156 408 q 156 403 157 401 q 158 398 160 398 q 161 398 183 420 q 206 442 233 464 q 263 487 296 501 q 330 514 359 514 q 417 514 447 481 q 477 448 477 384 q 477 322 462 223 q 447 124 447 89 q 447 72 450 67 q 453 62 461 62 q 466 62 476 63 q 486 65 492 65 q 502 65 508 61 q 514 57 514 50 q 514 30 475 13 q 436 -5 387 -5 q 372 -5 364 1 q 357 7 357 21 q 357 40 379 157 q 401 275 401 366 q 401 406 385 427 q 368 447 336 447 q 307 447 278 434 q 250 422 220 396 q 178 360 157 316 q 137 273 125 175 q 121 145 116 96 q 109 21 100 11 q 95 6 75 1 q 55 -5 37 -5 q 28 -5 24 -2 q 21 0 21 7 q 21 10 27 36 q 32 62 36 85 q 43 127 52 184 q 60 240 76 370 q 95 517 101 569 q 107 621 107 633 q 107 647 104 652 q 100 658 90 660 q 85 661 75 663 q 49 667 49 682 q 49 693 61 702 q 73 710 106 723 q 128 731 148 736 q 167 740 183 740 q 192 740 197 735 q 202 729 202 720 q 202 712 186 624 q 170 536 161 453 z"},"z":{"x_min":0,"x_max":447,"ha":447,"o":"m 19 81 l 307 390 q 315 398 319 406 q 323 413 323 418 q 323 425 310 429 q 297 433 272 433 l 190 433 q 145 433 128 427 q 111 420 101 405 q 96 397 89 382 q 77 355 63 355 q 56 355 50 361 q 44 367 44 374 q 44 425 62 467 q 81 509 101 509 q 105 509 115 505 q 125 502 130 501 q 136 500 153 500 q 170 499 227 499 q 272 499 320 500 q 368 501 371 501 q 397 501 406 494 q 416 487 416 470 q 416 455 404 435 q 393 415 369 390 l 108 112 q 101 104 97 97 q 93 90 93 84 q 93 77 105 73 q 118 70 144 70 l 258 70 q 294 70 312 78 q 329 87 343 113 q 348 122 354 137 q 365 165 378 165 q 387 165 392 158 q 397 152 397 140 q 397 123 391 96 q 385 69 375 41 q 367 17 356 6 q 346 -5 333 -5 q 331 -5 321 -4 q 256 3 184 3 q 146 3 95 0 q 45 -2 33 -2 q 10 -2 0 6 q -9 13 -9 31 q -9 41 -2 54 q 5 66 19 81 z"},"B":{"x_min":0,"x_max":632,"ha":632,"o":"m 386 378 q 485 364 532 326 q 578 288 578 221 q 578 116 498 55 q 418 -5 278 -5 q 248 -5 195 -2 q 142 1 119 1 q 117 1 107 1 q 67 0 31 0 q 10 0 -3 7 q -15 14 -15 25 q -15 33 -9 40 q -3 46 8 51 q 13 53 23 56 q 52 64 58 81 q 66 103 80 188 q 94 273 109 389 q 120 477 127 550 q 134 624 134 638 q 134 653 129 660 q 125 667 112 671 q 107 673 99 675 q 75 683 75 695 q 75 717 127 726 q 178 734 350 734 q 465 734 524 691 q 584 648 584 566 q 584 494 535 447 q 485 400 386 378 z m 271 47 q 363 47 420 90 q 476 133 476 202 q 476 283 421 315 q 365 348 217 348 q 202 348 193 345 q 185 341 183 334 q 181 324 175 276 q 168 227 160 151 q 158 133 157 119 q 156 105 156 99 q 156 70 181 59 q 207 47 271 47 z m 197 432 q 197 412 206 405 q 216 398 246 398 q 365 398 424 438 q 482 478 482 559 q 482 623 445 653 q 407 683 328 683 q 284 683 265 679 q 246 676 240 667 q 235 659 231 647 q 227 636 224 622 q 211 559 204 507 q 197 456 197 432 z"},"K":{"x_min":0,"x_max":600,"ha":600,"o":"m 187 360 q 170 240 162 173 q 154 106 154 93 q 154 79 159 70 q 165 62 177 56 q 181 54 189 51 q 213 42 213 29 q 213 11 185 3 q 157 -5 90 -5 q 37 -5 11 2 q -14 10 -14 25 q -14 34 -9 40 q -4 46 8 51 q 13 53 21 55 q 52 63 58 81 q 66 103 80 188 q 94 273 109 389 q 120 477 127 550 q 134 624 134 638 q 134 653 129 660 q 125 667 112 671 q 107 673 99 675 q 75 683 75 695 q 75 714 107 723 q 139 733 203 733 q 253 733 276 726 q 298 719 298 704 q 298 687 273 678 q 249 668 241 662 q 224 648 202 479 q 195 425 191 394 l 426 618 q 443 634 449 644 q 456 654 456 662 q 456 673 441 682 q 427 690 427 700 q 427 715 453 724 q 479 733 525 733 q 574 733 600 725 q 625 716 625 700 q 625 686 595 678 q 588 676 585 675 q 546 665 496 617 q 490 612 487 609 l 259 400 q 390 213 450 141 q 510 69 541 58 q 550 55 569 53 q 603 49 603 30 q 603 13 576 4 q 549 -5 499 -5 q 447 -5 393 72 q 387 80 384 84 q 354 125 287 222 q 220 319 187 360 z"},"R":{"x_min":0,"x_max":632,"ha":632,"o":"m 198 469 q 196 453 194 438 q 193 422 193 413 q 193 396 201 392 q 209 387 248 387 l 259 387 q 362 387 417 430 q 473 473 473 553 q 473 619 435 651 q 397 684 321 684 q 286 684 264 681 q 243 678 237 673 q 231 668 227 653 q 223 637 217 600 z m 204 337 q 195 337 190 334 q 185 331 183 325 q 181 317 176 286 q 172 255 160 158 q 157 134 156 117 q 154 101 154 93 q 154 79 159 70 q 165 62 177 56 q 181 54 189 51 q 213 42 213 29 q 213 11 185 3 q 157 -5 90 -5 q 37 -5 11 2 q -14 10 -14 25 q -14 34 -9 40 q -4 46 8 51 q 13 53 21 55 q 52 63 58 81 q 66 103 80 188 q 94 273 109 389 q 120 477 127 550 q 134 624 134 638 q 134 653 129 660 q 125 667 112 671 q 107 673 99 675 q 75 683 75 695 q 75 717 125 726 q 174 734 351 734 q 458 734 514 692 q 570 649 570 569 q 570 524 551 486 q 533 448 494 413 q 459 382 403 365 q 389 361 389 359 q 389 357 401 352 q 414 348 422 343 q 450 327 467 306 q 483 285 490 256 q 498 220 504 164 q 510 108 515 90 q 521 65 531 54 q 541 43 556 43 q 562 43 572 45 q 582 48 586 48 q 592 48 597 42 q 602 37 602 30 q 602 13 581 2 q 559 -9 524 -9 q 427 -9 406 188 l 406 192 q 398 269 365 303 q 331 337 265 337 z"},"T":{"x_min":0,"x_max":579,"ha":579,"o":"m 489 729 q 529 729 559 736 q 563 737 564 737 q 585 737 596 708 q 607 679 607 622 q 607 583 599 565 q 591 546 575 546 q 563 546 555 554 q 546 562 542 577 q 540 584 536 598 q 516 672 463 672 l 408 672 q 388 672 379 660 q 370 649 362 603 q 354 555 343 472 q 332 389 317 271 q 306 182 302 142 q 297 102 297 92 q 297 78 303 70 q 309 61 321 56 q 326 54 334 51 q 358 43 358 30 q 358 12 328 3 q 298 -5 230 -5 q 172 -5 147 2 q 122 10 122 26 q 122 34 128 40 q 133 46 145 51 q 149 53 158 55 q 190 64 199 83 q 207 101 218 162 q 228 223 251 389 q 265 489 272 556 q 280 622 280 639 q 280 657 274 664 q 269 672 256 672 l 203 672 q 173 672 153 656 q 132 641 111 603 q 108 598 104 589 q 80 546 59 546 q 49 546 44 552 q 38 559 38 571 q 38 583 46 612 q 53 641 66 671 q 80 708 92 722 q 104 737 119 737 q 120 737 125 736 q 157 729 194 729 z"},"P":{"x_min":0,"x_max":554,"ha":554,"o":"m 198 460 q 196 444 194 429 q 193 414 193 404 q 193 385 202 379 q 211 374 259 374 q 364 374 417 419 q 471 464 471 553 q 471 619 434 651 q 396 684 321 684 q 284 684 264 681 q 244 679 237 673 q 231 668 227 650 q 222 632 217 597 z m 223 330 q 206 330 197 327 q 188 325 186 319 q 183 310 177 272 q 171 235 161 161 q 158 139 156 120 q 154 102 154 93 q 154 79 159 70 q 165 62 177 56 q 181 54 189 51 q 213 42 213 29 q 213 11 185 3 q 157 -5 90 -5 q 37 -5 11 2 q -14 10 -14 25 q -14 34 -9 40 q -4 46 8 51 q 13 53 21 55 q 52 63 58 81 q 65 101 78 177 q 91 254 109 389 q 121 477 127 542 q 134 607 134 635 q 134 651 129 659 q 124 667 112 671 q 108 672 100 675 q 75 683 75 695 q 75 713 99 720 q 123 728 183 728 q 233 728 291 731 q 348 734 356 734 q 460 734 515 691 q 569 647 569 564 q 569 452 489 391 q 409 329 263 329 q 259 329 246 330 q 232 330 223 330 z"},"|":{"x_min":0,"x_max":500,"ha":500,"o":"m 219 764 l 281 764 l 281 -236 l 219 -236 z"},"t":{"x_min":0,"x_max":278,"ha":278,"o":"m 95 450 l 57 450 q 50 450 47 452 q 44 454 44 458 l 44 465 q 44 492 98 502 q 101 502 103 503 l 104 509 q 118 602 176 602 q 183 602 186 599 q 189 597 189 590 q 189 590 188 584 q 188 578 187 572 l 177 500 l 273 500 q 281 500 284 498 q 287 495 287 490 l 287 485 l 285 466 q 284 457 279 454 q 275 450 263 450 l 182 450 q 169 450 163 411 q 163 406 162 403 q 145 289 135 208 q 125 128 125 100 q 125 75 136 62 q 147 50 169 50 q 184 50 204 57 q 224 65 229 65 q 236 65 239 61 q 242 58 242 50 q 242 42 232 32 q 222 23 201 12 q 176 -1 157 -7 q 137 -13 121 -13 q 85 -13 67 9 q 48 31 48 73 q 48 110 60 210 q 73 310 95 450 z"},"M":{"x_min":0,"x_max":873,"ha":873,"o":"m 220 604 q 176 421 149 279 q 122 136 122 97 q 122 83 128 72 q 133 62 144 56 q 147 55 154 53 q 179 45 179 30 q 179 12 155 4 q 130 -4 70 -4 q 23 -4 -2 5 q -27 14 -27 31 q -27 48 0 56 q 27 64 38 72 q 61 88 91 244 l 95 262 l 152 551 l 154 560 q 164 614 164 629 q 164 645 158 656 q 152 667 140 671 q 135 673 127 675 q 102 683 102 695 q 102 712 131 723 q 160 733 209 733 q 226 733 241 730 q 255 728 267 723 q 283 716 292 658 q 294 647 295 641 q 317 519 344 403 q 372 288 405 182 q 456 264 513 367 q 570 471 632 593 q 643 613 660 652 q 678 690 687 702 q 701 720 716 726 q 730 733 756 733 q 818 733 842 726 q 866 720 866 704 q 866 686 836 675 q 806 665 800 657 q 796 651 792 635 q 789 619 786 587 q 765 404 753 271 q 741 139 741 100 q 741 81 746 70 q 751 60 761 56 q 766 54 774 52 q 799 44 799 30 q 799 12 770 4 q 741 -4 672 -4 q 618 -4 595 3 q 572 11 572 27 q 572 35 577 41 q 583 46 594 51 q 599 53 606 55 q 637 63 644 82 q 655 112 672 264 q 689 416 701 616 l 410 78 q 403 65 394 59 q 385 52 375 52 q 360 52 351 63 q 342 75 333 108 q 297 245 269 370 q 240 495 220 604 z"},"g":{"x_min":0,"x_max":537,"ha":537,"o":"m 77 12 q 54 24 41 45 q 29 66 29 94 q 29 130 52 161 q 76 191 123 216 q 99 240 88 269 q 76 297 76 330 q 76 410 133 463 q 189 516 277 516 q 299 516 323 512 q 348 508 373 501 q 397 513 417 526 q 436 539 452 553 q 462 541 467 531 q 472 521 472 514 q 472 497 462 483 q 451 470 429 458 q 448 437 457 412 q 466 388 466 360 q 466 278 406 226 q 346 173 250 173 q 224 173 195 179 q 166 186 162 186 q 140 186 119 164 q 98 142 98 116 q 98 89 119 78 q 140 67 193 67 q 219 67 275 72 q 330 76 359 76 q 419 76 452 50 q 484 23 484 -26 q 484 -101 404 -154 q 325 -207 206 -207 q 125 -207 75 -172 q 25 -138 25 -83 q 25 -55 38 -31 q 51 -8 77 12 z m 120 3 q 108 -13 103 -29 q 97 -45 97 -61 q 97 -106 133 -133 q 169 -160 231 -160 q 309 -160 360 -128 q 412 -96 412 -50 q 412 -22 395 -8 q 377 7 344 7 q 324 7 276 2 q 228 -2 201 -2 q 190 -2 173 -1 q 156 0 120 3 z m 255 217 q 309 217 347 261 q 386 306 386 368 q 386 415 359 444 q 333 472 288 472 q 233 472 195 427 q 156 383 156 319 q 156 273 183 245 q 211 217 255 217 z"},"j":{"x_min":0,"x_max":225,"ha":225,"o":"m 171 491 q 171 483 167 457 q 162 430 160 413 q 153 364 139 244 q 126 125 116 55 q 101 -51 91 -93 q 82 -134 69 -154 q 53 -181 26 -194 q -1 -208 -37 -208 q -65 -208 -81 -201 q -96 -194 -96 -182 q -96 -174 -91 -170 q -85 -166 -73 -166 q -66 -166 -59 -167 q -51 -167 -51 -167 q -20 -167 -3 -143 q 13 -120 26 -49 q 51 85 66 208 q 80 332 80 398 q 80 423 73 430 q 66 436 37 436 q 31 436 26 441 q 21 446 21 453 q 21 464 31 472 q 42 481 69 491 q 97 501 119 507 q 142 513 154 513 q 162 513 166 507 q 171 501 171 491 z m 77 676 q 77 699 93 715 q 109 731 132 731 q 155 731 169 717 q 184 704 184 682 q 184 660 168 645 q 151 629 129 629 q 107 629 92 642 q 77 656 77 676 z"},"i":{"x_min":0,"x_max":243,"ha":243,"o":"m 83 676 q 83 699 98 715 q 114 731 137 731 q 160 731 174 717 q 189 704 189 682 q 189 660 173 645 q 157 629 134 629 q 112 629 98 642 q 83 656 83 676 z m 39 21 q 39 27 47 74 q 55 121 61 161 q 74 249 81 305 q 87 362 87 392 l 87 400 q 87 419 83 425 q 80 430 71 432 q 66 433 58 435 q 29 439 29 455 q 29 466 40 474 q 51 483 80 493 q 105 502 128 507 q 150 512 164 512 q 172 512 177 506 q 181 500 181 489 q 181 483 174 441 q 166 399 161 365 q 147 270 137 190 q 128 110 128 97 q 128 76 133 69 q 138 62 151 62 q 155 62 164 63 q 173 65 179 65 q 186 65 190 60 q 195 56 195 49 q 195 30 156 12 q 117 -5 70 -5 q 54 -5 47 1 q 39 8 39 21 z"},"y":{"x_min":0,"x_max":481,"ha":481,"o":"m 244 16 q 301 102 332 183 q 362 265 362 332 q 362 368 346 415 q 331 461 331 474 q 331 492 344 503 q 356 514 378 514 q 405 514 421 488 q 437 461 437 415 q 437 334 401 230 q 365 127 302 31 q 226 -84 146 -146 q 67 -207 -6 -207 q -45 -207 -68 -189 q -91 -171 -91 -141 q -91 -114 -77 -98 q -63 -82 -39 -82 q -21 -82 -9 -93 q 3 -104 3 -122 l 3 -132 q 3 -144 8 -148 q 13 -152 25 -152 q 80 -152 128 -109 q 177 -67 177 -17 q 177 38 154 134 q 132 230 94 327 q 70 386 57 410 q 43 433 33 433 q 27 433 13 427 q 0 421 -9 421 q -17 421 -20 424 q -24 427 -24 434 q -24 441 -19 448 q -14 456 -1 466 q 25 487 48 500 q 70 514 77 514 q 112 514 161 373 q 210 231 244 16 z"},"@":{"x_min":0,"x_max":986,"ha":986,"o":"m 581 164 q 551 112 513 87 q 476 61 430 61 q 369 61 332 106 q 295 151 295 225 q 295 278 319 331 q 343 383 386 425 q 418 456 457 474 q 495 491 532 491 q 575 491 602 467 q 629 443 640 396 l 666 484 l 736 484 l 653 186 q 653 185 652 184 q 644 155 644 133 q 644 110 656 96 q 669 83 690 83 q 707 83 729 92 q 750 100 770 115 q 830 159 861 228 q 893 297 893 382 q 893 450 869 505 q 844 560 794 604 q 750 643 688 664 q 627 685 558 685 q 467 685 391 656 q 316 628 257 571 q 193 509 161 427 q 128 346 128 247 q 128 162 156 98 q 184 35 244 -16 q 300 -63 372 -88 q 443 -112 528 -112 q 607 -112 683 -86 q 758 -61 827 -11 l 842 -29 q 770 -83 689 -110 q 608 -137 522 -137 q 431 -137 355 -115 q 279 -92 221 -47 q 147 8 109 87 q 71 166 71 262 q 71 362 113 448 q 155 535 235 601 q 299 655 377 682 q 455 709 545 709 q 714 709 815 618 q 916 526 916 374 q 916 297 888 229 q 859 161 808 114 q 780 88 748 75 q 715 61 682 61 q 635 61 609 87 q 584 112 581 164 z m 536 471 q 510 471 488 456 q 466 441 443 407 q 408 354 387 293 q 366 231 366 183 q 366 138 386 111 q 406 85 439 85 q 471 85 500 107 q 530 128 557 172 q 585 218 602 271 q 618 324 618 367 q 618 413 595 442 q 572 471 536 471 z"},".":{"x_min":0,"x_max":266,"ha":266,"o":"m 64 45 q 64 70 81 87 q 97 104 122 104 q 147 104 165 87 q 182 70 182 45 q 182 21 165 3 q 147 -14 122 -14 q 97 -14 81 3 q 64 20 64 45 z"},"p":{"x_min":0,"x_max":542,"ha":542,"o":"m 322 448 q 291 448 258 430 q 226 412 200 379 q 169 339 152 283 q 134 228 134 168 q 134 103 161 68 q 188 34 238 34 q 271 34 301 52 q 331 70 356 105 q 388 150 405 205 q 422 259 422 314 q 422 377 396 413 q 369 448 322 448 z m 167 458 l 166 423 l 166 408 q 166 402 167 400 q 167 399 168 399 q 168 399 189 421 q 210 444 237 466 q 265 489 296 502 q 327 514 358 514 q 425 514 465 464 q 506 413 506 329 q 506 261 481 194 q 456 126 413 78 q 374 34 326 10 q 279 -13 231 -13 q 170 -13 127 21 q 122 25 121 25 q 116 25 106 -24 q 95 -73 95 -121 q 95 -135 100 -141 q 105 -147 125 -155 q 140 -160 144 -165 q 149 -169 149 -176 q 149 -191 129 -198 q 110 -205 69 -205 q 9 -205 -19 -197 q -46 -189 -46 -172 q -46 -164 -40 -159 q -34 -153 -21 -150 q -19 -149 -15 -149 q 6 -145 14 -113 q 20 -89 33 -8 q 46 74 61 175 q 73 255 79 316 q 86 377 86 403 q 86 433 59 434 q 58 434 57 434 q 39 435 31 439 q 23 443 23 451 q 23 458 28 465 q 32 471 42 476 q 69 492 98 501 q 127 511 144 511 q 157 511 162 500 q 167 488 167 458 z"},"X":{"x_min":0,"x_max":602,"ha":602,"o":"m 430 198 l 441 174 q 487 73 501 62 q 506 58 527 51 q 547 45 547 33 q 547 14 515 5 q 483 -5 419 -5 q 369 -5 346 2 q 324 9 324 24 q 324 34 329 39 q 334 45 347 50 q 351 52 358 55 q 386 65 386 79 q 386 91 382 105 q 377 120 367 141 l 281 329 l 143 140 q 124 112 117 99 q 110 85 110 75 q 110 65 128 54 q 147 43 147 32 q 147 14 122 4 q 98 -5 50 -5 q -1 -5 -22 3 q -44 10 -44 28 q -44 36 -39 42 q -34 47 -24 51 q -21 52 -16 54 q 25 67 47 96 l 260 378 l 193 530 q 157 609 144 634 q 131 659 122 666 q 117 670 96 677 q 75 683 75 695 q 75 714 108 723 q 140 733 204 733 q 254 733 277 726 q 299 719 299 704 q 299 694 294 689 q 289 683 276 678 q 272 676 265 673 q 237 663 237 649 q 237 639 240 626 q 244 614 256 587 l 324 438 l 432 588 q 453 617 459 630 q 465 643 465 653 q 465 663 447 674 q 428 685 428 696 q 428 714 453 724 q 478 733 525 733 q 577 733 598 725 q 620 718 620 700 q 620 685 586 672 q 583 671 580 670 q 545 656 512 611 q 506 603 503 598 l 346 386 z"},"*":{"x_min":0,"x_max":500,"ha":500,"o":"m 263 496 q 263 515 260 528 q 256 540 251 540 q 243 540 234 521 q 226 503 223 476 q 220 446 206 430 q 191 414 167 414 q 143 414 126 430 q 110 447 110 471 q 110 492 124 507 q 137 523 158 526 q 197 531 215 538 q 232 546 232 558 q 232 563 223 566 q 214 570 200 570 q 187 570 166 565 q 145 561 138 561 q 116 561 100 577 q 84 593 84 614 q 84 638 100 655 q 117 673 139 673 q 155 673 168 665 q 182 656 190 641 q 212 602 221 591 q 231 580 240 580 q 243 580 245 582 q 247 584 247 586 q 247 611 231 642 q 215 673 215 685 q 215 709 231 726 q 248 742 271 742 q 294 742 311 726 q 327 710 327 687 q 327 674 321 663 q 315 651 300 636 q 285 621 276 606 q 267 592 267 583 q 267 580 269 577 q 271 575 275 575 q 282 575 298 585 q 314 596 328 611 q 343 627 353 633 q 364 639 377 639 q 401 639 418 623 q 435 606 435 584 q 435 562 418 545 q 400 528 377 528 q 364 528 336 542 q 308 557 287 557 q 280 557 276 555 q 273 553 273 549 q 273 541 287 529 q 301 517 322 508 q 345 499 357 484 q 369 469 369 449 q 369 426 353 410 q 336 395 312 395 q 290 395 273 411 q 257 427 257 449 q 257 457 260 472 q 263 488 263 496 z"},"Y":{"x_min":0,"x_max":527,"ha":527,"o":"m 218 347 l 136 530 l 125 554 q 79 655 65 666 q 60 670 39 677 q 18 683 18 695 q 18 714 51 723 q 83 733 147 733 q 197 733 220 726 q 242 719 242 704 q 242 694 237 689 q 232 683 219 678 q 215 676 208 673 q 180 663 180 649 q 180 638 184 624 q 188 610 198 587 l 279 408 l 412 588 q 430 612 438 627 q 445 642 445 653 q 445 663 427 674 q 408 685 408 696 q 408 714 433 724 q 458 733 506 733 q 555 733 578 725 q 601 717 601 701 q 601 687 568 674 q 563 672 560 671 q 526 657 494 613 q 488 605 485 601 l 301 357 l 277 158 q 276 152 275 141 q 270 101 270 93 q 270 79 276 70 q 281 61 294 56 q 298 54 306 52 q 331 43 331 29 q 331 11 302 3 q 273 -5 203 -5 q 146 -5 121 3 q 95 10 95 27 q 95 44 122 52 q 149 60 157 65 q 177 79 205 261 q 213 316 218 347 z"},"c":{"x_min":0,"x_max":451,"ha":451,"o":"m 278 469 q 204 469 151 393 q 98 317 98 206 q 98 132 135 85 q 172 39 231 39 q 258 39 283 50 q 309 60 344 89 q 346 90 348 93 q 370 112 382 112 q 390 112 395 106 q 400 100 400 91 q 400 82 393 71 q 386 61 372 50 q 332 18 293 2 q 254 -13 212 -13 q 124 -13 70 43 q 16 99 16 191 q 16 264 43 327 q 71 391 124 441 q 162 477 205 495 q 249 514 293 514 q 352 514 389 484 q 426 455 426 409 q 426 381 412 365 q 398 348 375 348 q 353 348 341 362 q 329 376 329 403 q 329 404 330 411 q 330 418 330 423 q 330 446 317 458 q 304 469 278 469 z"},"!":{"x_min":0,"x_max":301,"ha":301,"o":"m 132 211 q 123 211 120 225 q 116 239 116 283 q 116 317 129 505 l 131 532 q 134 575 139 614 q 144 652 150 683 q 157 712 168 727 q 180 741 197 741 q 217 741 228 726 q 239 710 239 680 q 239 644 222 544 q 205 445 176 323 q 160 255 151 233 q 142 211 132 211 z m 56 41 q 56 64 72 81 q 88 97 111 97 q 134 97 151 81 q 167 64 167 41 q 167 18 151 2 q 134 -14 111 -14 q 88 -14 72 2 q 56 18 56 41 z"},"/":{"x_min":0,"x_max":241,"ha":241,"o":"m 186 722 q 188 731 196 736 q 204 741 219 741 q 228 741 231 738 q 235 735 235 729 q 235 725 234 720 q 233 716 232 711 l 30 -74 q 28 -84 20 -88 q 13 -93 -2 -93 q -11 -93 -14 -90 q -18 -87 -18 -81 q -18 -74 -18 -70 q -17 -66 -16 -62 z"},"[":{"x_min":0,"x_max":350,"ha":350,"o":"m 164 657 q 170 701 187 715 q 204 729 254 729 l 326 729 q 356 729 370 722 q 384 715 384 701 q 384 685 374 679 q 364 673 335 673 l 276 673 q 253 673 244 663 q 234 653 230 620 l 139 -39 q 139 -42 138 -44 q 138 -47 138 -52 q 138 -70 148 -79 q 158 -87 179 -87 l 223 -87 q 252 -87 262 -93 q 272 -99 272 -115 q 272 -130 259 -136 q 245 -143 215 -143 l 142 -143 q 96 -143 78 -132 q 60 -121 60 -93 q 60 -89 60 -86 q 61 -82 62 -73 z"},"6":{"x_min":0,"x_max":532,"ha":532,"o":"m 406 219 q 406 290 371 333 q 336 377 281 377 q 216 377 172 325 q 128 273 128 193 q 128 122 163 78 q 198 34 254 34 q 319 34 362 86 q 406 139 406 219 z m 398 668 q 305 602 240 521 q 175 440 139 346 q 185 393 230 415 q 275 438 322 438 q 396 438 440 389 q 485 339 485 257 q 485 201 464 150 q 444 100 405 61 q 369 25 323 5 q 278 -14 229 -14 q 141 -14 88 47 q 34 108 34 210 q 34 297 73 386 q 111 476 184 556 q 242 620 292 659 q 341 698 362 698 q 375 698 384 691 q 393 683 398 668 z"},"r":{"x_min":0,"x_max":370,"ha":370,"o":"m 167 406 q 201 459 238 485 q 274 511 314 511 q 344 511 361 492 q 378 473 378 439 q 378 414 364 398 q 350 383 327 383 q 312 383 304 387 q 295 392 288 404 q 284 410 279 427 q 274 445 266 445 q 252 445 234 427 q 215 410 196 379 q 180 352 169 302 q 158 252 145 135 q 144 120 141 94 q 135 24 127 15 q 120 7 99 2 q 78 -4 55 -4 q 48 -4 45 -1 q 42 1 42 7 q 42 10 48 38 q 54 65 59 88 q 76 171 85 241 q 94 310 94 358 q 94 393 89 414 q 84 435 77 436 q 70 438 56 439 q 25 443 25 457 q 25 465 31 472 q 37 478 54 486 l 55 486 q 120 515 131 515 q 146 515 154 490 q 162 466 167 406 z"},"2":{"x_min":0,"x_max":532,"ha":532,"o":"m 9 0 q -10 0 -18 3 q -25 7 -25 15 q -25 21 -20 30 q -15 39 -7 46 l 224 255 q 305 328 343 387 q 380 446 380 500 q 380 543 355 568 q 331 592 287 592 q 255 592 220 577 q 185 562 158 536 q 147 525 129 506 q 98 472 83 472 q 76 472 71 477 q 66 481 66 487 q 66 505 84 531 q 103 557 134 582 q 174 614 218 630 q 262 646 310 646 q 382 646 426 606 q 469 565 469 499 q 469 452 448 407 q 426 362 378 310 q 351 281 176 135 l 100 72 l 279 72 q 329 72 353 81 q 377 89 397 113 q 405 123 417 142 q 432 168 444 168 q 451 168 455 162 q 460 156 460 146 q 460 132 451 107 q 443 82 428 53 q 407 13 389 -8 q 370 -29 355 -29 q 349 -29 346 -25 q 343 -22 343 -15 q 343 -10 343 -6 q 344 -3 345 0 z"},"{":{"x_min":0,"x_max":500,"ha":500,"o":"m 413 740 l 413 715 q 344 714 318 688 q 293 662 293 586 l 293 516 q 293 406 263 365 q 233 325 153 310 q 233 295 263 255 q 293 214 293 104 l 293 34 q 293 -42 318 -68 q 343 -93 413 -94 l 413 -119 l 408 -119 q 302 -119 263 -83 q 223 -47 223 50 l 223 154 q 223 231 194 260 q 166 290 86 296 l 86 325 q 167 333 195 361 q 223 390 223 467 l 223 571 q 223 668 263 704 q 302 740 408 740 z"},"9":{"x_min":0,"x_max":532,"ha":532,"o":"m 130 413 q 130 342 165 299 q 200 255 256 255 q 321 255 365 307 q 408 359 408 439 q 408 509 373 553 q 337 597 283 597 q 217 597 173 546 q 130 494 130 413 z m 126 -30 q 220 37 284 114 q 348 190 380 275 q 342 234 298 213 q 254 192 210 192 q 137 192 90 244 q 43 296 43 379 q 43 418 54 456 q 65 494 86 527 q 122 583 177 615 q 232 646 293 646 q 387 646 440 588 q 493 530 493 427 q 493 335 453 243 q 413 150 337 68 q 283 9 232 -30 q 181 -68 160 -68 q 146 -68 139 -60 q 132 -52 126 -30 z"}," ":{"x_min":0,"x_max":266,"ha":266,"o":""},"I":{"x_min":0,"x_max":306,"ha":306,"o":"m 305 704 q 305 694 300 689 q 295 683 282 678 q 278 676 270 673 q 243 664 237 647 q 232 631 220 561 q 209 491 195 387 q 181 279 171 192 q 161 105 161 93 q 161 79 167 70 q 172 62 184 56 q 188 54 196 51 q 220 42 220 29 q 220 11 192 3 q 164 -5 97 -5 q 44 -5 19 2 q -7 10 -7 25 q -7 34 -2 40 q 3 46 15 51 q 20 53 29 55 q 59 63 65 81 q 72 101 86 183 q 99 265 115 389 q 126 479 134 552 q 141 626 141 638 q 141 653 136 660 q 131 667 119 671 q 114 673 105 676 q 81 684 81 695 q 81 714 114 723 q 146 733 210 733 q 260 733 283 726 q 305 719 305 704 z"},"H":{"x_min":0,"x_max":736,"ha":736,"o":"m 371 417 q 486 417 523 422 q 560 427 564 439 q 566 446 569 460 q 571 474 575 502 q 581 546 584 583 q 587 621 587 631 l 587 640 q 587 652 583 658 q 580 664 572 668 q 566 671 553 675 q 528 683 528 695 q 528 714 560 723 q 591 733 654 733 q 708 733 730 726 q 753 719 753 703 q 753 694 749 689 q 744 684 728 678 q 702 669 694 662 q 685 656 682 646 q 677 631 667 566 q 656 500 639 373 q 625 269 615 188 q 606 106 606 93 q 606 79 611 70 q 616 61 628 56 q 633 54 641 51 q 665 42 665 29 q 665 11 637 3 q 608 -5 541 -5 q 488 -5 462 2 q 437 10 437 25 q 437 43 467 53 q 497 62 504 72 q 509 78 513 94 q 518 109 526 159 q 536 220 542 271 q 549 323 549 332 q 549 349 528 355 q 506 361 427 361 l 373 361 l 293 361 q 230 361 210 356 q 190 351 186 337 q 183 328 179 304 q 175 280 171 248 q 163 189 158 147 q 154 104 154 93 q 154 79 159 70 q 165 62 177 56 q 181 54 189 51 q 213 42 213 29 q 213 11 185 3 q 157 -5 90 -5 q 37 -5 11 2 q -14 10 -14 25 q -14 34 -9 40 q -4 46 8 51 q 13 53 21 55 q 52 63 58 81 q 66 103 80 188 q 94 273 109 389 q 120 477 127 550 q 134 624 134 638 q 134 653 129 660 q 125 667 112 671 q 107 673 99 675 q 75 683 75 695 q 75 714 107 723 q 139 733 203 733 q 253 733 276 726 q 298 719 298 704 q 298 687 269 676 q 241 666 233 654 q 229 649 226 636 q 223 622 217 583 q 208 533 203 494 q 198 455 198 447 q 198 430 219 423 q 241 417 320 417 z"},"4":{"x_min":0,"x_max":532,"ha":532,"o":"m 334 131 l 388 526 q 309 434 229 335 q 148 236 68 131 z m 397 66 l 374 -99 q 371 -117 366 -122 q 361 -127 351 -127 l 317 -127 q 309 -127 305 -123 q 301 -119 301 -111 q 301 -110 301 -108 q 302 -105 302 -103 l 325 66 l 18 66 q 6 66 2 72 q -3 77 -3 91 q -3 110 14 139 q 31 168 99 252 l 312 515 q 363 579 400 612 q 437 646 454 646 q 466 646 471 642 q 475 638 475 625 q 475 611 468 572 q 460 533 457 511 l 406 131 l 465 131 q 475 131 479 128 q 484 125 484 118 l 484 114 l 480 85 q 479 77 473 71 q 468 66 461 66 z"},"~":{"x_min":0,"x_max":833,"ha":833,"o":"m 747 370 l 747 306 q 698 271 651 253 q 604 236 558 236 q 537 236 514 240 q 491 245 465 253 q 450 258 422 268 q 324 303 275 303 q 234 303 190 285 q 146 267 87 225 l 87 290 q 138 326 186 343 q 233 361 276 361 q 303 361 333 355 q 362 349 418 329 q 424 327 435 323 q 515 294 559 294 q 601 294 645 312 q 689 330 747 370 z"},"D":{"x_min":0,"x_max":755,"ha":755,"o":"m 157 101 q 157 72 185 61 q 212 49 281 49 q 440 49 529 149 q 618 250 618 430 q 618 559 551 619 q 484 680 343 680 q 312 680 287 676 q 261 671 246 663 q 231 656 224 611 q 223 604 222 601 q 193 432 175 287 q 157 141 157 101 z m 60 -2 q 21 -2 3 5 q -15 11 -15 25 q -15 33 -9 40 q -3 46 8 51 q 13 53 23 56 q 52 64 58 81 q 66 103 80 188 q 94 273 109 389 q 120 477 127 550 q 134 624 134 638 q 134 653 129 660 q 125 667 112 671 q 107 673 99 675 q 75 683 75 695 q 75 710 94 719 q 112 728 144 728 q 190 728 263 731 q 336 734 363 734 q 539 734 628 654 q 717 574 717 416 q 717 313 677 227 q 638 140 565 82 q 513 41 448 20 q 383 -2 309 -2 q 261 -2 206 -1 q 150 0 144 0 q 122 0 94 -1 q 66 -2 60 -2 z"},"^":{"x_min":0,"x_max":1000,"ha":1000,"o":"m 456 714 l 543 714 l 797 438 l 752 438 l 499 651 l 245 438 l 201 438 z"},"0":{"x_min":0,"x_max":532,"ha":532,"o":"m 245 31 q 278 31 306 53 q 334 75 354 116 q 381 173 396 243 q 410 312 410 385 q 410 483 376 542 q 342 602 287 602 q 217 602 169 502 q 120 402 120 252 q 120 148 153 90 q 187 31 245 31 z m 248 -14 q 153 -14 91 68 q 29 150 29 278 q 29 343 44 405 q 60 467 87 514 q 123 578 175 611 q 227 645 289 645 q 382 645 442 566 q 502 486 502 359 q 502 299 488 241 q 474 183 447 131 q 409 61 358 23 q 307 -14 248 -14 z"},"F":{"x_min":0,"x_max":565,"ha":565,"o":"m 311 401 q 354 401 369 407 q 384 414 394 429 q 399 437 409 472 q 419 508 440 508 q 452 508 458 499 q 463 489 463 468 q 463 417 455 366 q 447 314 432 268 q 426 250 419 243 q 412 236 400 236 q 389 236 383 244 q 378 252 378 269 l 378 299 q 378 322 365 333 q 351 344 323 344 l 218 344 q 198 344 191 340 q 185 335 181 320 q 179 312 167 220 l 165 204 q 159 159 156 131 q 153 103 153 94 q 153 78 160 70 q 167 61 184 55 q 187 54 193 52 q 221 43 221 29 q 221 11 190 3 q 160 -5 90 -5 q 37 -5 11 2 q -14 10 -14 25 q -14 34 -9 40 q -4 46 8 51 q 13 53 21 55 q 52 63 58 81 q 66 103 80 188 q 94 273 109 389 q 120 477 127 550 q 134 624 134 638 q 134 653 129 660 q 125 667 112 671 q 107 673 99 675 q 75 683 75 695 q 75 711 95 720 q 115 729 153 729 l 470 729 q 523 729 557 738 q 561 739 562 739 q 578 739 589 708 q 600 678 600 629 q 600 605 594 595 q 587 585 573 585 q 556 585 539 616 q 531 630 525 639 q 514 655 490 664 q 466 673 434 673 l 311 673 q 265 673 250 665 q 236 658 228 631 q 225 621 220 596 q 216 571 211 534 q 203 474 200 451 q 197 427 197 422 q 197 410 203 405 q 210 401 234 401 z"},"`":{"x_min":0,"x_max":500,"ha":500,"o":"m 297 588 l 154 666 q 141 673 135 680 q 130 686 130 693 q 130 708 143 721 q 157 735 170 735 q 178 735 190 726 q 194 723 196 722 l 349 613 q 354 609 357 605 q 360 601 360 596 q 360 588 353 580 q 345 571 337 571 q 329 571 299 587 z"},"k":{"x_min":0,"x_max":470,"ha":470,"o":"m 266 240 q 290 202 323 143 q 372 56 391 56 q 398 56 410 60 q 423 64 428 64 q 436 64 440 60 q 444 56 444 49 q 444 34 408 11 q 373 -11 347 -11 q 336 -11 327 -1 q 317 8 301 36 l 226 168 l 225 170 q 203 209 187 209 q 123 209 117 99 q 116 79 115 68 q 115 65 115 61 q 111 -4 34 -4 q 27 -4 24 -1 q 21 1 21 7 q 21 11 26 37 q 31 64 35 84 q 48 156 70 322 q 74 354 76 370 q 91 486 98 552 q 106 619 106 633 q 106 648 103 653 q 100 658 90 660 q 85 661 75 663 q 48 667 48 682 q 48 693 58 701 q 69 709 101 721 q 126 730 150 736 q 173 741 185 741 q 191 741 195 735 q 198 728 198 716 q 198 708 198 703 q 197 698 196 693 l 150 395 q 193 448 242 478 q 290 507 334 507 q 375 507 399 481 q 423 456 423 413 q 423 355 381 309 q 339 263 266 240 z m 134 239 q 236 261 292 301 q 349 342 349 393 q 349 419 335 434 q 320 448 294 448 q 241 448 194 388 q 147 329 134 239 z"},"u":{"x_min":0,"x_max":556,"ha":556,"o":"m 369 52 l 369 80 q 369 94 368 97 q 367 100 365 100 q 361 100 341 81 q 320 61 302 47 q 269 21 234 7 q 199 -8 169 -8 q 110 -8 81 25 q 51 58 51 122 q 51 179 65 273 q 79 367 79 402 q 79 420 72 427 q 65 435 48 436 q 26 437 21 440 q 15 444 15 452 q 15 461 25 469 q 34 477 57 487 q 81 498 105 505 q 129 511 144 511 q 158 511 164 505 q 170 498 170 483 q 170 457 149 343 q 128 229 128 146 q 128 102 144 80 q 160 59 194 59 q 222 59 250 72 q 279 84 308 110 q 350 147 371 192 q 393 237 404 331 q 408 364 413 415 q 419 486 428 495 q 433 500 453 506 q 473 511 492 511 q 500 511 503 508 q 507 505 507 499 q 507 495 500 460 q 493 425 488 398 q 470 295 459 216 q 448 138 448 109 q 448 91 452 82 q 455 73 462 72 q 469 71 481 70 q 512 68 512 53 q 512 44 503 37 q 494 29 468 18 q 446 9 426 3 q 406 -2 393 -2 q 379 -2 374 8 q 369 18 369 52 z"},"]":{"x_min":0,"x_max":350,"ha":350,"o":"m 163 -71 q 156 -116 140 -129 q 124 -143 74 -143 l 1 -143 q -29 -143 -42 -136 q -56 -130 -56 -115 q -56 -99 -46 -93 q -36 -87 -7 -87 l 52 -87 q 75 -87 84 -77 q 94 -67 98 -34 l 189 625 q 189 627 190 630 q 190 633 190 638 q 190 656 180 665 q 170 673 149 673 l 104 673 q 75 673 65 679 q 55 685 55 701 q 55 715 69 722 q 83 729 113 729 l 185 729 q 231 729 250 718 q 268 707 268 679 q 268 676 268 672 q 267 667 266 659 z"},"U":{"x_min":0,"x_max":718,"ha":718,"o":"m 298 704 q 298 687 271 677 q 244 667 236 655 q 232 648 227 629 q 223 610 216 573 q 190 430 178 338 q 165 246 165 202 q 165 118 204 77 q 242 35 320 35 q 404 35 458 79 q 512 124 534 211 q 550 271 573 465 q 579 513 582 539 q 587 576 589 602 q 592 628 592 638 q 592 652 587 659 q 582 666 568 671 q 563 673 555 675 q 530 683 530 695 q 530 713 561 723 q 593 732 656 732 q 700 732 721 725 q 741 719 741 704 q 741 686 703 673 q 699 672 696 671 q 679 665 669 652 q 659 640 654 617 q 649 593 642 544 q 634 496 626 434 q 623 409 617 366 q 597 217 586 184 q 548 76 480 29 q 411 -19 294 -19 q 190 -19 137 32 q 84 83 84 182 q 84 225 104 373 q 114 450 119 494 q 127 562 130 596 q 134 630 134 638 q 134 653 129 660 q 125 667 112 671 q 107 673 99 675 q 75 683 75 695 q 75 714 107 723 q 139 733 203 733 q 253 733 276 726 q 298 719 298 704 z"},"o":{"x_min":0,"x_max":528,"ha":528,"o":"m 281 469 q 207 469 155 391 q 104 313 104 196 q 104 120 138 76 q 171 32 230 32 q 259 32 285 44 q 312 57 331 80 q 366 120 385 177 q 404 235 404 299 q 404 380 372 425 q 339 469 281 469 z m 19 206 q 19 267 40 324 q 61 381 100 425 q 139 469 186 492 q 234 515 286 515 q 377 515 433 456 q 488 397 488 299 q 488 238 467 182 q 447 125 408 78 q 372 34 324 10 q 276 -14 224 -14 q 128 -14 74 45 q 19 104 19 206 z"},"N":{"x_min":0,"x_max":745,"ha":745,"o":"m 183 596 q 154 402 136 261 q 118 120 118 90 q 118 76 123 69 q 128 62 141 57 q 146 55 154 53 q 178 45 178 33 q 178 14 148 5 q 118 -4 56 -4 q 13 -4 -6 3 q -26 9 -26 24 q -26 36 -10 47 q 6 58 21 58 q 35 58 46 80 q 58 102 65 144 q 93 314 109 444 q 125 573 125 630 q 125 645 120 654 q 116 662 105 666 q 101 667 92 670 q 60 680 60 695 q 60 712 86 721 q 113 731 160 731 q 180 731 191 726 q 202 722 213 709 q 222 699 255 638 q 274 604 285 584 q 377 420 453 300 q 528 179 564 136 q 592 335 609 474 q 626 612 626 638 q 626 653 621 660 q 616 667 604 671 q 599 673 591 675 q 567 683 567 695 q 567 713 597 722 q 627 731 689 731 q 732 731 751 725 q 770 718 770 704 q 770 687 743 677 q 730 673 724 670 q 705 659 696 645 q 688 631 681 585 l 643 338 q 623 206 605 66 q 601 31 600 26 q 596 6 591 0 q 585 -7 574 -7 q 549 -7 460 133 l 454 143 q 344 315 272 434 q 201 554 183 596 z"},"+":{"x_min":0,"x_max":833,"ha":833,"o":"m 388 596 l 446 596 l 446 327 l 709 327 l 709 270 l 446 270 l 446 0 l 388 0 l 388 270 l 124 270 l 124 327 l 388 327 z"},"G":{"x_min":0,"x_max":722,"ha":722,"o":"m 443 741 q 480 741 523 732 q 566 722 573 722 q 583 722 599 728 q 615 733 621 733 q 639 733 651 698 q 663 663 663 607 q 663 580 656 567 q 648 554 633 554 q 613 554 592 591 q 590 595 589 596 q 561 644 520 666 q 479 688 419 688 q 354 688 298 656 q 242 624 205 566 q 170 512 151 444 q 133 376 133 302 q 133 180 192 107 q 251 34 349 34 q 428 34 480 87 q 532 140 532 221 q 532 237 525 247 q 518 256 502 261 q 496 263 485 265 q 458 271 458 284 q 458 303 493 312 q 528 321 600 321 q 657 321 682 314 q 706 308 706 293 q 706 276 671 265 q 663 262 659 261 q 634 253 623 221 l 622 219 q 621 216 619 208 q 590 120 563 83 q 528 33 471 7 q 414 -19 339 -19 q 199 -19 117 70 q 35 158 35 310 q 35 391 60 463 q 84 536 131 594 q 188 665 268 703 q 349 741 443 741 z"},"q":{"x_min":0,"x_max":530,"ha":530,"o":"m 348 -2 l 360 82 q 360 84 361 89 q 362 99 362 102 q 362 104 362 104 q 361 105 361 105 q 360 105 341 82 q 321 60 297 38 q 268 12 237 -1 q 205 -14 171 -14 q 102 -14 60 35 q 18 84 18 167 q 18 238 42 306 q 67 373 111 422 q 150 466 198 490 q 246 514 292 514 q 337 514 392 480 q 407 471 411 471 q 417 471 420 473 q 424 474 428 478 l 461 510 q 463 512 466 515 q 479 527 485 527 q 491 527 495 521 q 499 516 499 507 q 499 503 485 422 q 471 341 459 260 l 430 66 q 419 -6 413 -56 q 407 -106 407 -120 q 407 -132 412 -140 q 417 -147 428 -153 q 432 -155 439 -158 q 456 -165 456 -176 q 456 -191 438 -198 q 419 -205 380 -205 q 316 -205 289 -197 q 262 -189 262 -172 q 262 -158 285 -153 q 307 -147 310 -145 q 321 -136 330 -106 q 338 -76 348 -2 z m 201 52 q 232 52 265 70 q 298 89 324 121 q 354 159 372 215 q 389 271 389 332 q 389 397 362 432 q 335 467 285 467 q 252 467 223 449 q 194 431 168 395 q 136 351 119 297 q 102 243 102 187 q 102 123 128 87 q 154 52 201 52 z"},"d":{"x_min":0,"x_max":542,"ha":542,"o":"m 362 97 q 309 40 262 13 q 214 -14 168 -14 q 99 -14 58 37 q 17 87 17 172 q 17 239 42 306 q 67 373 111 422 q 151 466 198 490 q 244 514 290 514 q 354 514 402 473 q 407 468 408 468 q 411 468 412 472 q 414 476 415 484 l 425 584 q 426 598 427 612 q 428 626 428 640 q 428 653 425 657 q 422 661 411 663 q 408 664 402 665 q 374 669 374 682 q 374 701 417 721 q 459 740 505 740 q 514 740 519 735 q 524 729 524 720 q 524 717 513 651 q 502 584 493 518 q 464 312 454 221 q 443 130 443 97 q 443 78 448 72 q 452 66 465 66 q 470 66 478 67 q 486 68 490 68 q 500 68 505 64 q 510 61 510 53 q 510 36 475 14 q 440 -9 410 -9 q 385 -9 375 11 q 365 31 362 97 z m 201 52 q 232 52 265 70 q 298 89 324 121 q 354 160 372 216 q 389 273 389 332 q 389 397 362 432 q 335 467 285 467 q 252 467 223 449 q 194 431 168 395 q 136 350 119 295 q 102 241 102 186 q 102 123 128 87 q 154 52 201 52 z"},"1":{"x_min":0,"x_max":532,"ha":532,"o":"m 360 21 q 360 6 334 0 q 309 -5 208 -5 q 130 -5 108 0 q 86 5 86 18 q 86 27 94 32 q 102 38 121 41 q 127 42 138 43 q 185 50 192 67 q 198 82 206 129 q 214 175 230 299 q 245 415 250 466 q 256 517 256 541 q 256 558 253 562 q 251 567 243 567 q 232 567 211 561 q 190 555 181 555 q 172 555 167 559 q 162 563 162 571 q 162 582 175 591 q 187 601 213 611 q 254 626 295 636 q 337 645 361 645 q 375 645 381 641 q 387 637 387 628 q 387 619 374 610 q 373 609 372 609 q 371 608 369 607 q 349 596 341 560 q 335 534 325 468 q 315 402 304 309 q 292 214 285 155 q 279 97 279 81 q 279 54 316 45 q 325 43 330 42 l 332 42 q 360 35 360 21 z"},"5":{"x_min":0,"x_max":532,"ha":532,"o":"m 161 366 q 306 345 372 294 q 439 244 439 155 q 439 100 414 51 q 390 2 344 -34 q 307 -63 260 -78 q 214 -93 160 -93 q 100 -93 61 -79 q 22 -64 22 -43 q 22 -33 28 -29 q 33 -25 46 -25 q 60 -25 99 -34 q 138 -44 163 -44 q 244 -44 297 8 q 350 59 350 136 q 350 191 320 227 q 290 262 230 278 q 190 289 140 294 q 90 300 90 312 q 90 323 94 339 q 97 355 104 373 l 177 563 q 178 566 181 574 q 203 632 252 632 l 322 632 q 433 632 496 650 q 501 652 503 652 q 508 652 511 649 q 514 646 514 640 q 514 594 486 576 q 458 557 379 557 l 277 557 q 254 557 240 545 q 226 533 214 501 z"}}}
